<svg width="50" height="50" viewBox="0 0 50 50" fill="none"
  xmlns="http://www.w3.org/2000/svg">
  <rect width="50" height="50" rx="10" fill="#E44C4E"/>
  <path d="M27.0469 23.9688L21.9844 22.4688C21.375 22.3281 21 21.7656 21 21.1562C21 20.4062 21.6094 19.75 22.3594 19.75H25.4531C26.0625 19.75 26.625 19.9375 27.0938 20.2656C27.375 20.4531 27.75 20.4062 27.9844 20.1719L29.625 18.5781C29.9531 18.25 29.9062 17.7344 29.5312 17.4062C28.4062 16.5156 26.9531 16.0469 25.5 16V13.75C25.5 13.375 25.125 13 24.75 13H23.25C22.8281 13 22.5 13.375 22.5 13.75V16H22.3594C19.3594 16 16.9688 18.5781 17.25 21.625C17.4375 23.7812 19.0781 25.5625 21.1875 26.1719L25.9688 27.5781C26.5781 27.7188 27 28.2812 27 28.8906C27 29.6406 26.3438 30.25 25.5938 30.25H22.5C21.9375 30.25 21.375 30.1094 20.9062 29.7812C20.5781 29.5938 20.2031 29.6406 19.9688 29.875L18.3281 31.4688C18 31.7969 18.0469 32.3125 18.4219 32.5938C19.5938 33.5312 21 34 22.5 34V36.25C22.5 36.6719 22.8281 37 23.25 37H24.75C25.125 37 25.5 36.6719 25.5 36.25V34C27.6562 33.9531 29.7188 32.6875 30.4219 30.625C31.4531 27.7188 29.7656 24.7656 27.0469 23.9688Z" fill="#fff"/>
</svg>
